<svg width="413" height="413" viewBox="0 0 413 413" fill="none" xmlns="http://www.w3.org/2000/svg">
<path d="M365.49 379.527C364.491 379.527 363.491 379.145 362.728 378.382C361.202 376.858 361.202 374.384 362.728 372.858C366.536 369.049 368.488 363.992 368.229 358.619C367.97 353.242 365.54 348.397 361.39 344.974C359.723 343.603 359.486 341.14 360.86 339.475C362.23 337.816 364.698 337.568 366.357 338.947C372.232 343.788 375.669 350.639 376.035 358.242C376.402 365.843 373.64 372.995 368.253 378.382C367.489 379.145 366.49 379.527 365.49 379.527ZM52.0578 220.916C54.0454 220.077 54.9722 217.786 54.1333 215.799C41.6933 186.356 41.6626 152.578 54.0567 123.125C54.8923 121.137 53.9574 118.846 51.9699 118.009C49.9864 117.176 47.6939 118.104 46.8542 120.096C33.6511 151.478 33.6777 187.468 46.9381 218.839C47.5672 220.33 49.0135 221.227 50.5357 221.227C51.0431 221.227 51.5617 221.126 52.0578 220.916ZM272.479 71.798C272.438 71.8617 272.418 71.9367 272.379 72.0013L313.06 40.51C312.668 38.6652 312.454 36.7567 312.454 34.7974C312.454 19.6245 324.78 7.28125 339.928 7.28125C355.1 7.28125 367.445 19.6237 367.445 34.7974C367.445 49.9477 355.1 62.2732 339.928 62.2732C335.524 62.2732 331.373 61.206 327.68 59.3556L286.937 90.8912C319.176 141.347 317.793 208.364 279.947 257.895L306.671 284.617L307.064 284.224C313.142 278.143 322.743 277.681 329.381 283.15V283.152L378.778 323.872C399.838 341.232 401.296 372.96 382.063 392.193C362.727 411.529 331.026 409.874 313.744 388.911L273.022 339.512C267.551 332.872 268.013 323.28 274.094 317.195L274.49 316.799L247.086 289.397C190.495 328.948 111.443 324.022 60.1807 272.762C3.16894 215.75 3.16894 122.981 60.1807 65.9668C119.011 7.1425 216.024 8.94696 272.479 71.798ZM312.587 289.748C314.706 287.63 281.039 321.297 279.616 322.72C276.397 325.943 276.152 331.026 279.047 334.543L319.77 383.941C334.226 401.475 360.599 402.604 376.537 386.67C392.603 370.6 391.22 344.258 373.81 329.9L324.413 289.18V289.181C320.865 286.259 315.782 286.554 312.587 289.748ZM275.007 264.004C272.449 267.006 269.793 269.943 266.973 272.762C262.679 277.057 258.142 281.013 253.432 284.698L280.011 311.275L301.145 290.141L275.007 264.004ZM320.267 34.7974C320.267 45.6386 329.086 54.4609 339.928 54.4609C350.792 54.4609 359.631 45.6394 359.631 34.7974C359.631 23.9327 350.792 15.0944 339.928 15.0944C329.086 15.0944 320.267 23.9327 320.267 34.7974ZM315.942 48.1594L255.35 95.0631C257.337 96.9587 259.045 99.1391 260.396 101.552L320.989 54.652C319.002 52.7556 317.293 50.5737 315.942 48.1594ZM236.383 95.2446C225.542 95.2446 216.718 104.084 216.718 114.948C216.718 125.789 225.542 134.611 236.383 134.611C247.248 134.611 256.086 125.79 256.086 114.948C256.086 104.083 247.248 95.2446 236.383 95.2446ZM119.438 155.895C119.438 145.029 110.599 136.19 99.7311 136.19C88.8898 136.19 80.07 145.029 80.07 155.895C80.07 166.736 88.8898 175.559 99.7311 175.559C110.599 175.559 119.438 166.737 119.438 155.895ZM120.628 173.726L163.982 200.734C165.084 198.186 166.566 195.846 168.346 193.765L124.997 166.759C123.896 169.306 122.411 171.646 120.628 173.726ZM169.537 211.633C169.537 222.477 178.361 231.298 189.202 231.298C200.067 231.298 208.905 222.477 208.905 211.633C208.905 200.769 200.066 191.93 189.202 191.93C178.361 191.929 169.537 200.769 169.537 211.633ZM228.174 141.169C225.515 140.335 223.035 139.098 220.79 137.545L197.446 185.382C200.105 186.218 202.585 187.457 204.83 189.013L228.174 141.169ZM226.127 89.44C185.46 57.4858 127.814 61.498 91.7615 97.5508C52.0618 137.25 52.0643 201.485 91.7615 241.183C131.461 280.882 195.702 280.876 235.395 241.183C265.108 211.47 272.446 168.34 257.964 131.94C252.92 138.313 245.13 142.424 236.383 142.424C236.341 142.424 236.3 142.418 236.257 142.418L210.785 194.62C214.489 199.307 216.718 205.21 216.718 211.634C216.718 226.784 204.373 239.111 189.202 239.111C174.05 239.111 161.725 226.784 161.725 211.634C161.725 210.621 161.788 209.623 161.896 208.637L114.443 179.076C110.182 181.781 105.144 183.371 99.7311 183.371C84.5824 183.371 72.2569 171.045 72.2569 155.895C72.2569 140.722 84.5824 128.377 99.7311 128.377C114.906 128.377 127.25 140.722 127.25 155.895C127.25 156.896 127.189 157.883 127.084 158.855L174.526 188.41C178.778 185.706 183.803 184.116 189.203 184.116C189.258 184.116 189.313 184.124 189.368 184.124L214.833 131.94C211.134 127.259 208.906 121.363 208.906 114.946C208.906 103.406 216.045 93.52 226.127 89.44ZM65.7029 71.4915C11.7395 125.461 11.7395 213.271 65.7029 267.239C119.809 321.341 207.359 321.334 261.45 267.239C308.077 220.616 314.514 149.253 280.694 95.7238L263.286 109.198C263.682 111.054 263.9 112.975 263.9 114.948C263.9 117.761 263.471 120.476 262.681 123.034C281.303 162.758 274.986 212.644 240.921 246.706C198.166 289.46 128.986 289.452 86.2392 246.706C43.4848 203.956 43.4881 134.773 86.2392 92.0269C127.834 50.4325 193.534 49.7678 236.028 87.45C236.148 87.4484 236.264 87.4323 236.385 87.4323C240.8 87.4323 244.962 88.5035 248.664 90.3596L266.36 76.6612C213.381 17.9588 121.71 15.4929 65.7029 71.4915Z" fill="white"/>
</svg>
