<svg width="315" height="315" viewBox="0 0 315 315" fill="none" xmlns="http://www.w3.org/2000/svg">
<path d="M278.763 289.469C278.001 289.469 277.238 289.178 276.656 288.596C275.492 287.433 275.492 285.547 276.656 284.383C279.56 281.477 281.05 277.62 280.852 273.522C280.654 269.421 278.801 265.726 275.636 263.115C274.364 262.069 274.184 260.191 275.231 258.921C276.276 257.656 278.159 257.466 279.424 258.518C283.905 262.21 286.527 267.436 286.806 273.234C287.085 279.032 284.979 284.487 280.87 288.596C280.287 289.178 279.525 289.469 278.763 289.469ZM39.7044 168.494C41.2203 167.855 41.9272 166.107 41.2873 164.591C31.7992 142.135 31.7758 116.372 41.2289 93.9078C41.8663 92.3918 41.1532 90.6446 39.6373 90.006C38.1244 89.3704 36.3759 90.0786 35.7355 91.5976C25.6653 115.533 25.6856 142.983 35.7995 166.91C36.2793 168.048 37.3825 168.731 38.5434 168.731C38.9304 168.732 39.326 168.654 39.7044 168.494ZM207.822 54.7604C207.791 54.809 207.776 54.8662 207.746 54.9155L238.774 30.8967C238.475 29.4897 238.312 28.034 238.312 26.5396C238.312 14.9671 247.713 5.55273 259.267 5.55273C270.838 5.55273 280.254 14.9664 280.254 26.5396C280.254 38.0949 270.838 47.4957 259.267 47.4957C255.908 47.4957 252.742 46.6818 249.925 45.2704L218.85 69.323C243.439 107.806 242.384 158.921 213.518 196.699L233.901 217.08L234.201 216.78C238.836 212.142 246.159 211.79 251.222 215.961V215.962L288.898 247.021C304.961 260.261 306.073 284.46 291.403 299.13C276.655 313.877 252.477 312.615 239.296 296.626L208.236 258.949C204.064 253.885 204.416 246.568 209.054 241.928L209.356 241.626L188.454 220.725C145.292 250.892 84.9985 247.134 45.8998 208.038C2.41622 164.555 2.41622 93.7983 45.8998 50.3129C90.77 5.44691 164.763 6.82319 207.822 54.7604ZM238.413 220.994C240.03 219.378 214.351 245.056 213.266 246.141C210.81 248.6 210.624 252.477 212.832 255.159L243.891 292.835C254.918 306.209 275.033 307.07 287.189 294.917C299.442 282.66 298.387 262.569 285.108 251.618L247.433 220.56V220.561C244.727 218.332 240.85 218.557 238.413 220.994ZM209.75 201.358C207.799 203.648 205.774 205.888 203.623 208.038C200.348 211.314 196.887 214.331 193.295 217.142L213.567 237.412L229.686 221.293L209.75 201.358ZM244.27 26.5396C244.27 34.8084 250.997 41.5372 259.266 41.5372C267.553 41.5372 274.294 34.809 274.294 26.5396C274.294 18.253 267.552 11.5119 259.266 11.5119C250.997 11.5119 244.27 18.253 244.27 26.5396ZM240.972 36.731L194.758 72.505C196.273 73.9508 197.576 75.6138 198.606 77.4539L244.821 41.683C243.306 40.2366 242.003 38.5724 240.972 36.731ZM180.292 72.6434C172.023 72.6434 165.293 79.3852 165.293 87.6712C165.293 95.9399 172.023 102.669 180.292 102.669C188.578 102.669 195.319 95.9405 195.319 87.6712C195.319 79.3846 188.578 72.6434 180.292 72.6434ZM91.0961 118.902C91.0961 110.614 84.3544 103.873 76.0653 103.873C67.7966 103.873 61.0696 110.614 61.0696 118.902C61.0696 127.171 67.7966 133.9 76.0653 133.9C84.3544 133.9 91.0961 127.172 91.0961 118.902ZM92.0036 132.502L125.071 153.101C125.911 151.158 127.041 149.373 128.399 147.786L95.3363 127.188C94.4959 129.131 93.3639 130.915 92.0036 132.502ZM129.307 161.414C129.307 169.685 136.037 176.413 144.306 176.413C152.592 176.413 159.334 169.685 159.334 161.414C159.334 153.128 152.592 146.387 144.306 146.387C136.037 146.386 129.307 153.128 129.307 161.414ZM174.03 107.671C172.002 107.034 170.111 106.091 168.398 104.906L150.594 141.392C152.622 142.03 154.513 142.975 156.225 144.161L174.03 107.671ZM172.469 68.2162C141.452 43.8443 97.4847 46.9045 69.9868 74.4024C39.7074 104.682 39.7093 153.674 69.9868 183.952C100.266 214.232 149.263 214.227 179.538 183.952C202.2 161.29 207.797 128.394 196.752 100.631C192.904 105.492 186.963 108.628 180.292 108.628C180.259 108.628 180.228 108.623 180.196 108.623L160.768 148.438C163.592 152.013 165.293 156.515 165.293 161.415C165.293 172.97 155.877 182.372 144.306 182.372C132.749 182.372 123.349 172.97 123.349 161.415C123.349 160.642 123.397 159.881 123.479 159.129L87.286 136.582C84.0363 138.646 80.1935 139.858 76.0653 139.858C64.5112 139.858 55.1104 130.458 55.1104 118.902C55.1104 107.33 64.5112 97.9142 76.0653 97.9142C87.6397 97.9142 97.0547 107.33 97.0547 118.902C97.0547 119.666 97.0079 120.418 96.9279 121.16L133.112 143.702C136.355 141.64 140.188 140.427 144.306 140.427C144.349 140.427 144.39 140.433 144.433 140.433L163.855 100.631C161.033 97.0609 159.334 92.5641 159.334 87.6699C159.334 78.8684 164.779 71.3281 172.469 68.2162ZM50.1117 54.5266C8.95308 95.6895 8.95308 162.664 50.1117 203.826C91.3791 245.09 158.154 245.084 199.411 203.826C234.973 168.266 239.883 113.836 214.088 73.0089L200.81 83.2858C201.112 84.7014 201.279 86.1669 201.279 87.6712C201.279 89.8171 200.952 91.888 200.349 93.8389C214.553 124.137 209.734 162.185 183.752 188.165C151.143 220.774 98.378 220.768 65.7749 188.165C33.1656 155.559 33.1681 102.792 65.7749 70.1893C97.4995 38.4647 147.61 37.9577 180.02 66.6984C180.112 66.6972 180.201 66.6849 180.293 66.6849C183.661 66.6849 186.835 67.5019 189.658 68.9176L203.156 58.4697C162.748 13.6966 92.8286 11.8158 50.1117 54.5266Z" fill="black"/>
</svg>
